<svg width="247" height="247" xmlns="http://www.w3.org/2000/svg" xmlns:xlink="http://www.w3.org/1999/xlink" overflow="hidden"><defs><clipPath id="clip0"><rect x="368" y="365" width="247" height="247"/></clipPath></defs><g clip-path="url(#clip0)" transform="translate(-368 -365)"><path d="M369.5 408.168C369.5 385.708 387.708 367.5 410.168 367.5L572.833 367.5C595.293 367.5 613.5 385.708 613.5 408.168L613.5 570.833C613.5 593.293 595.293 611.5 572.833 611.5L410.168 611.5C387.708 611.5 369.5 593.293 369.5 570.833Z" stroke="#2F71E9" stroke-width="1.33333" stroke-miterlimit="8" fill="none" fill-rule="evenodd"/><rect x="444.5" y="412.5" width="28" height="153" stroke="#2F71E9" stroke-width="1.33333" stroke-miterlimit="8" fill="none"/><path d="M502.388 412.5C526.599 412.805 541.216 417.929 547.512 434.474 553.808 453.225 554.508 524.164 547.512 543.831 539.467 563.733 526.948 564.584 503.088 565.5L483.5 565.5 483.5 538.277 493.271 538.277C508.64 537.687 516.704 537.139 521.886 524.319 526.392 511.651 525.942 465.956 521.886 453.878 517.83 443.22 508.415 439.92 492.82 439.723L483.5 439.759 483.5 412.573Z" stroke="#2F71E9" stroke-width="1.33333" stroke-miterlimit="8" fill="none" fill-rule="evenodd"/></g></svg>