<svg width="245" height="245" xmlns="http://www.w3.org/2000/svg" xmlns:xlink="http://www.w3.org/1999/xlink" overflow="hidden"><defs><clipPath id="clip0"><rect x="689" y="366" width="245" height="245"/></clipPath><radialGradient cx="1.16205e+06" cy="1.16205e+06" r="1.64339e+06" fx="1.16205e+06" fy="1.16205e+06" gradientUnits="userSpaceOnUse" spreadMethod="pad" id="fill1" gradientTransform="matrix(0.000104987 0 0 0.000104987 689 367)"><stop offset="0" stop-color="#538AED"/><stop offset="0.2" stop-color="#538AED"/><stop offset="0.8" stop-color="#2F71E9"/><stop offset="1" stop-color="#2F71E9"/></radialGradient></defs><g clip-path="url(#clip0)" transform="translate(-689 -366)"><path d="M689 407.667C689 385.207 707.207 367 729.667 367L892.333 367C914.793 367 933 385.207 933 407.667L933 570.333C933 592.793 914.793 611 892.333 611L729.667 611C707.207 611 689 592.793 689 570.333Z" fill="url(#fill1)" fill-rule="evenodd"/><rect x="764" y="412" width="28" height="153" fill="#FFFFFF"/><path d="M821.888 412C846.099 412.305 860.716 417.429 867.012 433.974 873.308 452.725 874.008 523.664 867.012 543.331 858.967 563.233 846.448 564.084 822.588 565L803 565 803 537.777 812.771 537.777C828.14 537.187 836.204 536.639 841.386 523.819 845.892 511.151 845.442 465.456 841.386 453.378 837.33 442.72 827.915 439.42 812.32 439.223L803 439.259 803 412.073Z" fill="#FFFFFF" fill-rule="evenodd"/></g></svg>